<svg width="23" height="23" viewBox="0 0 23 23" fill="none" xmlns="http://www.w3.org/2000/svg">
<path d="M19.502 8.55114L19.1511 8.3559C19.0966 8.32558 19.0698 8.31037 19.0434 8.2946C18.7817 8.13783 18.5612 7.92123 18.4002 7.66209C18.384 7.63602 18.3687 7.60868 18.3375 7.55463C18.3063 7.50066 18.2905 7.47331 18.276 7.44623C18.1316 7.17663 18.0535 6.87619 18.0489 6.57039C18.0484 6.53965 18.0485 6.50824 18.0496 6.44579L18.0564 6.03825C18.0674 5.38608 18.0729 5.05898 17.9812 4.76543C17.8998 4.50468 17.7636 4.26451 17.5818 4.0607C17.3762 3.83031 17.0916 3.66595 16.5219 3.33765L16.0487 3.06495C15.4805 2.73756 15.1964 2.5738 14.8947 2.51138C14.6279 2.45615 14.3525 2.45871 14.0866 2.5184C13.7865 2.58576 13.5059 2.75378 12.945 3.08963L12.9419 3.09115L12.6028 3.29418C12.5492 3.32629 12.522 3.34247 12.4951 3.35741C12.2285 3.50568 11.9307 3.58767 11.6258 3.59746C11.595 3.59844 11.5638 3.59844 11.5013 3.59844C11.4391 3.59844 11.4065 3.59844 11.3758 3.59746C11.0702 3.58763 10.7719 3.50519 10.5048 3.35631C10.4779 3.3413 10.4512 3.32499 10.3975 3.29274L10.0563 3.08787C9.49155 2.74885 9.20876 2.57908 8.90701 2.51138C8.64005 2.45148 8.36373 2.44982 8.09591 2.50576C7.79351 2.56892 7.50928 2.73389 6.94081 3.06382L6.93828 3.06495L6.47094 3.33619L6.46576 3.33935C5.90242 3.66631 5.62006 3.83019 5.41621 4.05963C5.23531 4.26324 5.1001 4.50303 5.01917 4.76309C4.92769 5.05704 4.93257 5.38484 4.94359 6.04008L4.95044 6.44705C4.95148 6.50868 4.95328 6.5393 4.95283 6.56961C4.94829 6.87603 4.86916 7.17709 4.72434 7.44717C4.71002 7.47388 4.69459 7.50059 4.66377 7.55394C4.63293 7.60733 4.61799 7.63388 4.602 7.65965C4.44031 7.92017 4.21872 8.13803 3.95536 8.29507C3.92931 8.3106 3.90186 8.32554 3.84791 8.35543L3.50141 8.54745C2.92491 8.86693 2.63673 9.02681 2.42703 9.25433C2.24153 9.45561 2.10139 9.69435 2.01584 9.95437C1.91915 10.2483 1.91923 10.5779 1.92073 11.237L1.92195 11.7757C1.92344 12.4304 1.92548 12.7575 2.02239 13.0495C2.10813 13.3077 2.24724 13.5451 2.43171 13.7451C2.64022 13.9713 2.92554 14.1301 3.49767 14.4484L3.84108 14.6395C3.89952 14.672 3.92893 14.688 3.95712 14.705C4.21808 14.8622 4.43794 15.0794 4.59826 15.3384C4.61558 15.3664 4.6322 15.3955 4.66545 15.4536C4.69829 15.5109 4.71509 15.5396 4.73027 15.5684C4.87083 15.8345 4.94609 16.1302 4.95122 16.4311C4.95178 16.4636 4.9513 16.4965 4.95019 16.5626L4.94359 16.9531C4.93249 17.6106 4.92766 17.9397 5.01968 18.2345C5.10108 18.4952 5.23714 18.7354 5.41902 18.9392C5.6246 19.1696 5.90961 19.3339 6.47936 19.6622L6.95249 19.9348C7.52064 20.2622 7.80462 20.4258 8.10624 20.4882C8.37309 20.5434 8.64862 20.5413 8.9145 20.4816C9.21501 20.4141 9.49659 20.2455 10.0591 19.9087L10.3982 19.7057C10.4518 19.6736 10.479 19.6575 10.5058 19.6425C10.7725 19.4942 11.0699 19.4118 11.3749 19.402C11.4056 19.4011 11.4369 19.4011 11.4994 19.4011C11.5621 19.4011 11.5933 19.4011 11.6241 19.4021C11.9298 19.4119 12.229 19.4946 12.4961 19.6435C12.5196 19.6566 12.5431 19.6707 12.5845 19.6955L12.945 19.912C13.5097 20.251 13.7919 20.4203 14.0937 20.488C14.3607 20.5479 14.6372 20.5503 14.905 20.4944C15.2073 20.4313 15.4921 20.266 16.0603 19.9362L16.5347 19.6609C17.0984 19.3337 17.381 19.1697 17.585 18.9401C17.7658 18.7365 17.9012 18.4969 17.9822 18.2368C18.073 17.945 18.0675 17.6197 18.0566 16.9739L18.0496 16.5527C18.0485 16.4911 18.0484 16.4604 18.0488 16.4301C18.0534 16.1237 18.1312 15.8224 18.276 15.5524C18.2903 15.5257 18.3059 15.4988 18.3366 15.4456C18.3674 15.3922 18.3834 15.3656 18.3994 15.3398C18.5611 15.0793 18.7829 14.8613 19.0463 14.7042C19.072 14.6889 19.0985 14.6742 19.1511 14.645L19.1529 14.6442L19.4994 14.4522C20.0759 14.1327 20.3647 13.9726 20.5744 13.7451C20.7599 13.5438 20.8998 13.3054 20.9854 13.0454C21.0815 12.7532 21.0808 12.4256 21.0793 11.7741L21.078 11.2239C21.0765 10.5692 21.0757 10.2421 20.9788 9.95016C20.8931 9.69189 20.7532 9.45454 20.5687 9.25448C20.3604 9.02856 20.0747 8.86962 19.5037 8.55195L19.502 8.55114Z" stroke="white" stroke-width="2" stroke-linecap="round" stroke-linejoin="round"/>
<path d="M7.66698 11.5C7.66698 13.6171 9.38322 15.3333 11.5003 15.3333C13.6174 15.3333 15.3336 13.6171 15.3336 11.5C15.3336 9.38287 13.6174 7.66663 11.5003 7.66663C9.38322 7.66663 7.66698 9.38287 7.66698 11.5Z" stroke="white" stroke-width="2" stroke-linecap="round" stroke-linejoin="round"/>
</svg>
